<svg width="14" height="10" viewBox="0 0 14 10" fill="none" xmlns="http://www.w3.org/2000/svg">
<path fill-rule="evenodd" clip-rule="evenodd" d="M13 5C13 4.44772 12.5523 4 12 4H1C0.447715 4 0 4.44772 0 5C0 5.55228 0.447716 6 1 6H12C12.5523 6 13 5.55228 13 5Z" fill="#3B79C3"/>
<path fill-rule="evenodd" clip-rule="evenodd" d="M13.7185 4.32562L9.64075 0.279337C9.26541 -0.0931125 8.65685 -0.0931125 8.28151 0.279337C7.90616 0.651788 7.90616 1.25565 8.28151 1.6281L11.6796 5L8.28151 8.3719C7.90616 8.74435 7.90616 9.34821 8.28151 9.72066C8.65685 10.0931 9.26541 10.0931 9.64075 9.72066L13.7185 5.67438C14.0938 5.30193 14.0938 4.69807 13.7185 4.32562Z" fill="#3B79C3"/>
</svg>
