<svg clip-rule="evenodd" fill-rule="evenodd" stroke-linecap="round" viewBox="0 0 1400 1422" xmlns="http://www.w3.org/2000/svg" xmlns:xlink="http://www.w3.org/1999/xlink"><linearGradient id="a" gradientTransform="matrix(937.176 1369.28 -1369.28 937.176 168.204 30.895)" gradientUnits="userSpaceOnUse" x1="0" x2="1" y1="0" y2="0"><stop offset="0" stop-color="#b92bf0"/><stop offset="1" stop-color="#8313dd"/></linearGradient><linearGradient id="b" gradientTransform="matrix(213.16 395.473 -395.473 213.16 91.6719 17.4336)" gradientUnits="userSpaceOnUse" x1="0" x2="1" y1="0" y2="0"><stop offset="0" stop-color="#de99e8"/><stop offset="1" stop-color="#95c3ec"/></linearGradient><linearGradient id="c" gradientTransform="matrix(105.712 62.8225 -62.8225 105.712 1404.09 240.315)" gradientUnits="userSpaceOnUse" x1="0" x2="1" y1="0" y2="0"><stop offset="0" stop-color="#4194dc"/><stop offset="1" stop-color="#a3ded8"/></linearGradient><g transform="translate(-162)"><path d="m162 0h1400v1422h-1400z" fill="url(#a)" fill-rule="nonzero"/><g transform="translate(0 488)"><circle cx="214.5" cy="214.5" fill="url(#b)" r="214.5" transform="matrix(-1 0 0 -1 429 429)"/><g fill="none" stroke="#9e96f7" stroke-width="3" transform="translate(11 278)"><path d="m0 50 106-50 106 50 106-50 106 50 106-50"/><path d="m0 63 106-50 106 50 106-50 106 50 106-50"/><path d="m0 75 106-50 106 50 106-50 106 50 106-50"/><path d="m0 88 106-50 106 50 106-50 106 50 106-50"/><path d="m0 100 106-50 106 50 106-50 106 50 106-50"/><path d="m0 112 106-50 106 50 106-50 106 50 106-50"/><path d="m0 124 106-50 106 50 106-50 106 50 106-50"/><path d="m0 137 106-50 106 50 106-50 106 50 106-50"/><path d="m0 149 106-50 106 50 106-50 106 50 106-50"/><path d="m0 162 106-50 106 50 106-50 106 50 106-50"/><path d="m0 174 106-50 106 50 106-50 106 50 106-50"/><path d="m0 186 106-50 106 50 106-50 106 50 106-50"/></g><g fill-rule="nonzero"><path d="m1383.75 423.249c83.67 0 151.5-67.605 151.5-151s-67.83-151-151.5-151" fill="url(#c)" transform="matrix(0 1 1 0 1187.25 -1187.25)"/><path d="m1832.87 143.368c-10.38 0-15.49-6.538-20.43-12.859-4.62-5.908-8.98-11.489-17.64-11.489s-13.02 5.581-17.64 11.489c-4.94 6.321-10.05 12.859-20.42 12.859-10.38 0-15.49-6.538-20.43-12.861-4.62-5.908-8.98-11.487-17.64-11.487-8.65 0-13.01 5.579-17.63 11.487-4.94 6.323-10.05 12.861-20.43 12.861-10.37 0-15.48-6.538-20.42-12.861-4.62-5.908-8.98-11.487-17.64-11.487-8.65 0-13.01 5.579-17.63 11.487-4.94 6.323-10.05 12.861-20.43 12.861-10.37 0-15.48-6.538-20.42-12.859-4.62-5.908-8.98-11.489-17.63-11.489-8.66 0-13.02 5.579-17.63 11.487-4.94 6.323-10.05 12.861-20.43 12.861-10.37 0-15.48-6.538-20.42-12.861-4.62-5.908-8.98-11.487-17.64-11.487-8.65 0-13.01 5.579-17.63 11.487-4.94 6.323-10.05 12.861-20.43 12.861-10.37 0-15.48-6.538-20.42-12.861-4.62-5.908-8.98-11.487-17.63-11.487-8.66 0-13.02 5.579-17.64 11.487-4.94 6.323-10.05 12.861-20.42 12.861s-15.48-6.538-20.42-12.861c-4.62-5.908-8.98-11.487-17.64-11.487-8.65 0-13.01 5.579-17.63 11.487-4.94 6.323-10.05 12.861-20.42 12.861-10.38 0-15.49-6.538-20.43-12.859-4.61-5.908-8.97-11.489-17.63-11.489-8.65 0-13.02 5.581-17.63 11.489-4.94 6.321-10.05 12.859-20.43 12.859-10.37 0-15.48-6.538-20.42-12.861-4.62-5.908-8.98-11.487-17.63-11.487v-3.652c10.37 0 15.48 6.537 20.42 12.859 4.62 5.908 8.98 11.489 17.63 11.489 8.66 0 13.02-5.58 17.64-11.488 4.94-6.323 10.05-12.86 20.42-12.86 10.38 0 15.48 6.537 20.43 12.86 4.61 5.908 8.97 11.488 17.63 11.488 8.65 0 13.01-5.581 17.63-11.489 4.94-6.322 10.05-12.859 20.42-12.859 10.38 0 15.49 6.537 20.43 12.86 4.61 5.908 8.98 11.488 17.63 11.488s13.01-5.58 17.63-11.488c4.94-6.323 10.05-12.86 20.43-12.86 10.37 0 15.48 6.537 20.42 12.859 4.62 5.908 8.98 11.489 17.63 11.489 8.66 0 13.02-5.581 17.64-11.489 4.94-6.322 10.05-12.859 20.42-12.859 10.38 0 15.49 6.537 20.43 12.86 4.62 5.908 8.98 11.488 17.63 11.488 8.66 0 13.02-5.58 17.63-11.488 4.94-6.323 10.05-12.86 20.43-12.86 10.37 0 15.48 6.537 20.42 12.86 4.62 5.908 8.98 11.488 17.63 11.488 8.66 0 13.02-5.58 17.64-11.488 4.94-6.323 10.05-12.86 20.42-12.86 10.38 0 15.49 6.537 20.43 12.86 4.62 5.908 8.98 11.488 17.63 11.488 8.66 0 13.02-5.58 17.64-11.488 4.94-6.323 10.05-12.86 20.42-12.86 10.38 0 15.49 6.537 20.43 12.86 4.62 5.908 8.98 11.488 17.64 11.488 8.65 0 13.01-5.581 17.63-11.489 4.95-6.322 10.05-12.859 20.43-12.859s15.49 6.537 20.43 12.859c4.62 5.908 8.98 11.489 17.64 11.489zm0 24c-10.38 0-15.49-6.538-20.43-12.859-4.62-5.908-8.98-11.489-17.64-11.489s-13.02 5.581-17.64 11.489c-4.94 6.321-10.05 12.859-20.42 12.859-10.38 0-15.49-6.538-20.43-12.861-4.62-5.908-8.98-11.487-17.64-11.487-8.65 0-13.01 5.579-17.63 11.487-4.94 6.323-10.05 12.861-20.43 12.861-10.37 0-15.48-6.538-20.42-12.861-4.62-5.908-8.98-11.487-17.64-11.487-8.65 0-13.01 5.579-17.63 11.487-4.94 6.323-10.05 12.861-20.43 12.861-10.37 0-15.48-6.538-20.42-12.859-4.62-5.908-8.98-11.489-17.63-11.489-8.66 0-13.02 5.579-17.63 11.487-4.94 6.323-10.05 12.861-20.43 12.861-10.37 0-15.48-6.538-20.42-12.861-4.62-5.908-8.98-11.487-17.64-11.487-8.65 0-13.01 5.579-17.63 11.487-4.94 6.323-10.05 12.861-20.43 12.861-10.37 0-15.48-6.538-20.42-12.861-4.62-5.908-8.98-11.487-17.63-11.487-8.66 0-13.02 5.579-17.64 11.487-4.94 6.323-10.05 12.861-20.42 12.861s-15.48-6.538-20.42-12.861c-4.62-5.908-8.98-11.487-17.64-11.487-8.65 0-13.01 5.579-17.63 11.487-4.94 6.323-10.05 12.861-20.42 12.861-10.38 0-15.49-6.538-20.43-12.859-4.61-5.908-8.97-11.489-17.63-11.489-8.65 0-13.02 5.581-17.63 11.489-4.94 6.321-10.05 12.859-20.43 12.859-10.37 0-15.48-6.538-20.42-12.861-4.62-5.908-8.98-11.487-17.63-11.487v-3.652c10.37 0 15.48 6.537 20.42 12.859 4.62 5.908 8.98 11.489 17.63 11.489 8.66 0 13.02-5.58 17.64-11.488 4.94-6.323 10.05-12.86 20.42-12.86 10.38 0 15.48 6.537 20.43 12.86 4.61 5.908 8.97 11.488 17.63 11.488 8.65 0 13.01-5.581 17.63-11.489 4.94-6.322 10.05-12.859 20.42-12.859 10.38 0 15.49 6.537 20.43 12.86 4.61 5.908 8.98 11.488 17.63 11.488s13.01-5.58 17.63-11.488c4.94-6.323 10.05-12.86 20.43-12.86 10.37 0 15.48 6.537 20.42 12.859 4.62 5.908 8.98 11.489 17.63 11.489 8.66 0 13.02-5.581 17.64-11.489 4.94-6.322 10.05-12.859 20.42-12.859 10.38 0 15.49 6.537 20.43 12.86 4.62 5.908 8.98 11.488 17.63 11.488 8.66 0 13.02-5.58 17.63-11.488 4.94-6.323 10.05-12.86 20.43-12.86 10.37 0 15.48 6.537 20.42 12.86 4.62 5.908 8.98 11.488 17.63 11.488 8.66 0 13.02-5.58 17.64-11.488 4.94-6.323 10.05-12.86 20.42-12.86 10.38 0 15.49 6.537 20.43 12.86 4.62 5.908 8.98 11.488 17.63 11.488 8.66 0 13.02-5.58 17.64-11.488 4.94-6.323 10.05-12.86 20.42-12.86 10.38 0 15.49 6.537 20.43 12.86 4.62 5.908 8.98 11.488 17.64 11.488 8.65 0 13.01-5.581 17.63-11.489 4.95-6.322 10.05-12.859 20.43-12.859s15.49 6.537 20.43 12.859c4.62 5.908 8.98 11.489 17.64 11.489zm0 23c-10.38 0-15.49-6.538-20.43-12.859-4.62-5.908-8.98-11.489-17.64-11.489s-13.02 5.581-17.64 11.489c-4.94 6.321-10.05 12.859-20.42 12.859-10.38 0-15.49-6.538-20.43-12.861-4.62-5.908-8.98-11.487-17.64-11.487-8.65 0-13.01 5.579-17.63 11.487-4.94 6.323-10.05 12.861-20.43 12.861-10.37 0-15.48-6.538-20.42-12.861-4.62-5.908-8.98-11.487-17.64-11.487-8.65 0-13.01 5.579-17.63 11.487-4.94 6.323-10.05 12.861-20.43 12.861-10.37 0-15.48-6.538-20.42-12.859-4.62-5.908-8.98-11.489-17.63-11.489-8.66 0-13.02 5.579-17.63 11.487-4.94 6.323-10.05 12.861-20.43 12.861-10.37 0-15.48-6.538-20.42-12.861-4.62-5.908-8.98-11.487-17.64-11.487-8.65 0-13.01 5.579-17.63 11.487-4.94 6.323-10.05 12.861-20.43 12.861-10.37 0-15.48-6.538-20.42-12.861-4.62-5.908-8.98-11.487-17.63-11.487-8.66 0-13.02 5.579-17.64 11.487-4.94 6.323-10.05 12.861-20.42 12.861s-15.48-6.538-20.42-12.861c-4.62-5.908-8.98-11.487-17.64-11.487-8.65 0-13.01 5.579-17.63 11.487-4.94 6.323-10.05 12.861-20.42 12.861-10.38 0-15.49-6.538-20.43-12.859-4.61-5.908-8.97-11.489-17.63-11.489-8.65 0-13.02 5.581-17.63 11.489-4.94 6.321-10.05 12.859-20.43 12.859-10.37 0-15.48-6.538-20.42-12.861-4.62-5.908-8.98-11.487-17.63-11.487v-3.652c10.37 0 15.48 6.537 20.42 12.859 4.62 5.908 8.98 11.489 17.63 11.489 8.66 0 13.02-5.58 17.64-11.488 4.94-6.323 10.05-12.86 20.42-12.86 10.38 0 15.48 6.537 20.43 12.86 4.61 5.908 8.97 11.488 17.63 11.488 8.65 0 13.01-5.581 17.63-11.489 4.94-6.322 10.05-12.859 20.42-12.859 10.38 0 15.49 6.537 20.43 12.86 4.61 5.908 8.98 11.488 17.63 11.488s13.01-5.58 17.63-11.488c4.94-6.323 10.05-12.86 20.43-12.86 10.37 0 15.48 6.537 20.42 12.859 4.62 5.908 8.98 11.489 17.63 11.489 8.66 0 13.02-5.581 17.64-11.489 4.94-6.322 10.05-12.859 20.42-12.859 10.38 0 15.49 6.537 20.43 12.86 4.62 5.908 8.98 11.488 17.63 11.488 8.66 0 13.02-5.58 17.63-11.488 4.94-6.323 10.05-12.86 20.43-12.86 10.37 0 15.48 6.537 20.42 12.86 4.62 5.908 8.98 11.488 17.63 11.488 8.66 0 13.02-5.58 17.64-11.488 4.94-6.323 10.05-12.86 20.42-12.86 10.38 0 15.49 6.537 20.43 12.86 4.62 5.908 8.98 11.488 17.63 11.488 8.66 0 13.02-5.58 17.64-11.488 4.94-6.323 10.05-12.86 20.42-12.86 10.38 0 15.49 6.537 20.43 12.86 4.62 5.908 8.98 11.488 17.64 11.488 8.65 0 13.01-5.581 17.63-11.489 4.95-6.322 10.05-12.859 20.43-12.859s15.49 6.537 20.43 12.859c4.62 5.908 8.98 11.489 17.64 11.489zm0 24c-10.38 0-15.49-6.538-20.43-12.859-4.62-5.908-8.98-11.489-17.64-11.489s-13.02 5.581-17.64 11.489c-4.94 6.321-10.05 12.859-20.42 12.859-10.38 0-15.49-6.538-20.43-12.861-4.62-5.908-8.98-11.487-17.64-11.487-8.65 0-13.01 5.579-17.63 11.487-4.94 6.323-10.05 12.861-20.43 12.861-10.37 0-15.48-6.538-20.42-12.861-4.62-5.908-8.98-11.487-17.64-11.487-8.65 0-13.01 5.579-17.63 11.487-4.94 6.323-10.05 12.861-20.43 12.861-10.37 0-15.48-6.538-20.42-12.859-4.62-5.908-8.98-11.489-17.63-11.489-8.66 0-13.02 5.579-17.63 11.487-4.94 6.323-10.05 12.861-20.43 12.861-10.37 0-15.48-6.538-20.42-12.861-4.62-5.908-8.98-11.487-17.64-11.487-8.65 0-13.01 5.579-17.63 11.487-4.94 6.323-10.05 12.861-20.43 12.861-10.37 0-15.48-6.538-20.42-12.861-4.62-5.908-8.98-11.487-17.63-11.487-8.66 0-13.02 5.579-17.64 11.487-4.94 6.323-10.05 12.861-20.42 12.861s-15.48-6.538-20.42-12.861c-4.62-5.908-8.98-11.487-17.64-11.487-8.65 0-13.01 5.579-17.63 11.487-4.94 6.323-10.05 12.861-20.42 12.861-10.38 0-15.49-6.538-20.43-12.859-4.61-5.908-8.97-11.489-17.63-11.489-8.65 0-13.02 5.581-17.63 11.489-4.94 6.321-10.05 12.859-20.43 12.859-10.37 0-15.48-6.538-20.42-12.861-4.62-5.908-8.98-11.487-17.63-11.487v-3.652c10.37 0 15.48 6.537 20.42 12.859 4.62 5.908 8.98 11.489 17.63 11.489 8.66 0 13.02-5.58 17.64-11.488 4.94-6.323 10.05-12.86 20.42-12.86 10.38 0 15.48 6.537 20.43 12.86 4.61 5.908 8.97 11.488 17.63 11.488 8.65 0 13.01-5.581 17.63-11.489 4.94-6.322 10.05-12.859 20.42-12.859 10.38 0 15.49 6.537 20.43 12.86 4.61 5.908 8.98 11.488 17.63 11.488s13.01-5.58 17.63-11.488c4.94-6.323 10.05-12.86 20.43-12.86 10.37 0 15.48 6.537 20.42 12.859 4.62 5.908 8.98 11.489 17.63 11.489 8.66 0 13.02-5.581 17.64-11.489 4.94-6.322 10.05-12.859 20.42-12.859 10.38 0 15.49 6.537 20.43 12.86 4.62 5.908 8.98 11.488 17.63 11.488 8.66 0 13.02-5.58 17.63-11.488 4.94-6.323 10.05-12.86 20.43-12.86 10.37 0 15.48 6.537 20.42 12.86 4.62 5.908 8.98 11.488 17.63 11.488 8.66 0 13.02-5.58 17.64-11.488 4.94-6.323 10.05-12.86 20.42-12.86 10.38 0 15.49 6.537 20.43 12.86 4.62 5.908 8.98 11.488 17.63 11.488 8.66 0 13.02-5.58 17.64-11.488 4.94-6.323 10.05-12.86 20.42-12.86 10.38 0 15.49 6.537 20.43 12.86 4.62 5.908 8.98 11.488 17.64 11.488 8.65 0 13.01-5.581 17.63-11.489 4.95-6.322 10.05-12.859 20.43-12.859s15.49 6.537 20.43 12.859c4.62 5.908 8.98 11.489 17.64 11.489zm0 24c-10.38 0-15.49-6.538-20.43-12.859-4.62-5.908-8.98-11.489-17.64-11.489s-13.02 5.581-17.64 11.489c-4.94 6.321-10.05 12.859-20.42 12.859-10.38 0-15.49-6.538-20.43-12.861-4.62-5.908-8.98-11.487-17.64-11.487-8.65 0-13.01 5.579-17.63 11.487-4.94 6.323-10.05 12.861-20.43 12.861-10.37 0-15.48-6.538-20.42-12.861-4.62-5.908-8.98-11.487-17.64-11.487-8.65 0-13.01 5.579-17.63 11.487-4.94 6.323-10.05 12.861-20.43 12.861-10.37 0-15.48-6.538-20.42-12.859-4.62-5.908-8.98-11.489-17.63-11.489-8.66 0-13.02 5.579-17.63 11.487-4.94 6.323-10.05 12.861-20.43 12.861-10.37 0-15.48-6.538-20.42-12.861-4.62-5.908-8.98-11.487-17.64-11.487-8.65 0-13.01 5.579-17.63 11.487-4.94 6.323-10.05 12.861-20.43 12.861-10.37 0-15.48-6.538-20.42-12.861-4.62-5.908-8.98-11.487-17.63-11.487-8.66 0-13.02 5.579-17.64 11.487-4.94 6.323-10.05 12.861-20.42 12.861s-15.48-6.538-20.42-12.861c-4.62-5.908-8.98-11.487-17.64-11.487-8.65 0-13.01 5.579-17.63 11.487-4.94 6.323-10.05 12.861-20.42 12.861-10.38 0-15.49-6.538-20.43-12.859-4.61-5.908-8.97-11.489-17.63-11.489-8.65 0-13.02 5.581-17.63 11.489-4.94 6.321-10.05 12.859-20.43 12.859-10.37 0-15.48-6.538-20.42-12.861-4.62-5.908-8.98-11.487-17.63-11.487v-3.652c10.37 0 15.48 6.537 20.42 12.859 4.62 5.908 8.98 11.489 17.63 11.489 8.66 0 13.02-5.58 17.64-11.488 4.94-6.323 10.05-12.86 20.42-12.86 10.38 0 15.48 6.537 20.43 12.86 4.61 5.908 8.97 11.488 17.63 11.488 8.65 0 13.01-5.581 17.63-11.489 4.94-6.322 10.05-12.859 20.42-12.859 10.38 0 15.49 6.537 20.43 12.86 4.61 5.908 8.98 11.488 17.63 11.488s13.01-5.58 17.63-11.488c4.94-6.323 10.05-12.86 20.43-12.86 10.37 0 15.48 6.537 20.42 12.859 4.62 5.908 8.98 11.489 17.63 11.489 8.66 0 13.02-5.581 17.64-11.489 4.94-6.322 10.05-12.859 20.42-12.859 10.38 0 15.49 6.537 20.43 12.86 4.62 5.908 8.98 11.488 17.63 11.488 8.66 0 13.02-5.58 17.63-11.488 4.94-6.323 10.05-12.86 20.43-12.86 10.37 0 15.48 6.537 20.42 12.86 4.62 5.908 8.98 11.488 17.63 11.488 8.66 0 13.02-5.58 17.64-11.488 4.94-6.323 10.05-12.86 20.42-12.86 10.38 0 15.49 6.537 20.43 12.86 4.62 5.908 8.98 11.488 17.63 11.488 8.66 0 13.02-5.58 17.64-11.488 4.94-6.323 10.05-12.86 20.42-12.86 10.38 0 15.49 6.537 20.43 12.86 4.62 5.908 8.98 11.488 17.64 11.488 8.65 0 13.01-5.581 17.63-11.489 4.95-6.322 10.05-12.859 20.43-12.859s15.49 6.537 20.43 12.859c4.62 5.908 8.98 11.489 17.64 11.489zm0 23c-10.38 0-15.49-6.538-20.43-12.859-4.62-5.908-8.98-11.489-17.64-11.489s-13.02 5.581-17.64 11.489c-4.94 6.321-10.05 12.859-20.42 12.859-10.38 0-15.49-6.538-20.43-12.861-4.62-5.908-8.98-11.487-17.64-11.487-8.65 0-13.01 5.579-17.63 11.487-4.94 6.323-10.05 12.861-20.43 12.861-10.37 0-15.48-6.538-20.42-12.861-4.62-5.908-8.98-11.487-17.64-11.487-8.65 0-13.01 5.579-17.63 11.487-4.94 6.323-10.05 12.861-20.43 12.861-10.37 0-15.48-6.538-20.42-12.859-4.62-5.908-8.98-11.489-17.63-11.489-8.66 0-13.02 5.579-17.63 11.487-4.94 6.323-10.05 12.861-20.43 12.861-10.37 0-15.48-6.538-20.42-12.861-4.62-5.908-8.98-11.487-17.64-11.487-8.65 0-13.01 5.579-17.63 11.487-4.94 6.323-10.05 12.861-20.43 12.861-10.37 0-15.48-6.538-20.42-12.861-4.62-5.908-8.98-11.487-17.63-11.487-8.66 0-13.02 5.579-17.64 11.487-4.94 6.323-10.05 12.861-20.42 12.861s-15.48-6.538-20.42-12.861c-4.62-5.908-8.98-11.487-17.64-11.487-8.65 0-13.01 5.579-17.63 11.487-4.94 6.323-10.05 12.861-20.42 12.861-10.38 0-15.49-6.538-20.43-12.859-4.61-5.908-8.97-11.489-17.63-11.489-8.65 0-13.02 5.581-17.63 11.489-4.94 6.321-10.05 12.859-20.43 12.859-10.37 0-15.48-6.538-20.42-12.861-4.62-5.908-8.98-11.487-17.63-11.487v-3.652c10.37 0 15.48 6.537 20.42 12.859 4.62 5.908 8.98 11.489 17.63 11.489 8.66 0 13.02-5.58 17.64-11.488 4.94-6.323 10.05-12.86 20.42-12.86 10.38 0 15.48 6.537 20.43 12.86 4.61 5.908 8.97 11.488 17.63 11.488 8.65 0 13.01-5.581 17.63-11.489 4.94-6.322 10.05-12.859 20.42-12.859 10.38 0 15.49 6.537 20.43 12.86 4.61 5.908 8.98 11.488 17.63 11.488s13.01-5.58 17.63-11.488c4.94-6.323 10.05-12.86 20.43-12.86 10.37 0 15.48 6.537 20.42 12.859 4.62 5.908 8.98 11.489 17.63 11.489 8.66 0 13.02-5.581 17.64-11.489 4.94-6.322 10.05-12.859 20.42-12.859 10.38 0 15.49 6.537 20.43 12.86 4.62 5.908 8.98 11.488 17.63 11.488 8.66 0 13.02-5.58 17.63-11.488 4.94-6.323 10.05-12.86 20.43-12.86 10.37 0 15.48 6.537 20.42 12.86 4.62 5.908 8.98 11.488 17.63 11.488 8.66 0 13.02-5.58 17.64-11.488 4.94-6.323 10.05-12.86 20.42-12.86 10.38 0 15.49 6.537 20.43 12.86 4.62 5.908 8.98 11.488 17.63 11.488 8.66 0 13.02-5.58 17.64-11.488 4.94-6.323 10.05-12.86 20.42-12.86 10.38 0 15.49 6.537 20.43 12.86 4.62 5.908 8.98 11.488 17.64 11.488 8.65 0 13.01-5.581 17.63-11.489 4.95-6.322 10.05-12.859 20.43-12.859s15.49 6.537 20.43 12.859c4.62 5.908 8.98 11.489 17.64 11.489z" fill="#c348d5"/></g></g></g></svg>