<svg width="210" height="210" viewBox="0 0 210 210" fill="none" xmlns="http://www.w3.org/2000/svg">
<path fill-rule="evenodd" clip-rule="evenodd" d="M84 56C84 54.8954 84.8954 54 86 54H113C114.105 54 115 54.8954 115 56V60C115 61.1046 114.105 62 113 62H86C84.8954 62 84 61.1046 84 60V56Z" fill="#2C88D9"/>
<path fill-rule="evenodd" clip-rule="evenodd" d="M84 98C84 96.8954 84.8954 96 86 96H113C114.105 96 115 96.8954 115 98V102C115 103.105 114.105 104 113 104H86C84.8954 104 84 103.105 84 102V98Z" fill="#2C88D9"/>
<path fill-rule="evenodd" clip-rule="evenodd" d="M84 70C84 68.8954 84.8954 68 86 68H122C123.105 68 124 68.8954 124 70V74C124 75.1046 123.105 76 122 76H86C84.8954 76 84 75.1046 84 74V70Z" fill="#2C88D9"/>
<path fill-rule="evenodd" clip-rule="evenodd" d="M84 84C84 82.8954 84.8954 82 86 82H122C123.105 82 124 82.8954 124 84V88C124 89.1046 123.105 90 122 90H86C84.8954 90 84 89.1046 84 88V84Z" fill="#2C88D9"/>
<path d="M70 39.5H140C140.276 39.5 140.5 39.7239 140.5 40V124C140.5 124.276 140.276 124.5 140 124.5H70C69.7239 124.5 69.5 124.276 69.5 124V40C69.5 39.7239 69.7239 39.5 70 39.5Z" stroke="#ABCFF0" stroke-width="3"/>
</svg>
