<svg width="210" height="210" viewBox="0 0 210 210" fill="none" xmlns="http://www.w3.org/2000/svg">
<path fill-rule="evenodd" clip-rule="evenodd" d="M135 66C133.895 66 133 65.1046 133 64V45C133 43.8954 133.895 43 135 43H154C155.105 43 156 43.8954 156 45V64C156 65.1046 155.105 66 154 66H135Z" fill="#8313DD"/>
<path fill-rule="evenodd" clip-rule="evenodd" d="M56 93C54.8954 93 54 92.1046 54 91L54 72C54 70.8954 54.8954 70 56 70H75C76.1046 70 77 70.8954 77 72V91C77 92.1046 76.1046 93 75 93H56Z" fill="#8313DD"/>
<path fill-rule="evenodd" clip-rule="evenodd" d="M94.5508 82.8298C93.8164 82.0954 93.8164 80.9046 94.5508 80.1702L108.17 66.5508C108.905 65.8164 110.095 65.8164 110.83 66.5508L124.449 80.1702C125.184 80.9046 125.184 82.0954 124.449 82.8298L110.83 96.4492C110.095 97.1836 108.905 97.1836 108.17 96.4492L94.5508 82.8298Z" fill="#8313DD"/>
<path fill-rule="evenodd" clip-rule="evenodd" d="M135 120C133.895 120 133 119.105 133 118V99C133 97.8954 133.895 97 135 97H154C155.105 97 156 97.8954 156 99V118C156 119.105 155.105 120 154 120H135Z" fill="#8313DD"/>
<rect x="79" y="80" width="12" height="3" fill="#CDA0F1"/>
<path d="M108 54C108 52.8954 108.895 52 110 52H131V55H108V54Z" fill="#CDA0F1"/>
<path d="M108 54C108 52.8954 108.895 52 110 52H111V64H108V54Z" fill="#CDA0F1"/>
<path d="M108 109C108 110.105 108.895 111 110 111H131V108H108V109Z" fill="#CDA0F1"/>
<path d="M108 109C108 110.105 108.895 111 110 111H111V99H108V109Z" fill="#CDA0F1"/>
</svg>
