<svg width="38" height="39" viewBox="0 0 38 39" fill="none" xmlns="http://www.w3.org/2000/svg">
<path fill-rule="evenodd" clip-rule="evenodd" d="M0 2.99805C0 1.89348 0.895431 0.998047 2 0.998047H36C37.1046 0.998047 38 1.89348 38 2.99805V36.998C38 38.1026 37.1046 38.998 36 38.998H2C0.89543 38.998 0 38.1026 0 36.998V2.99805Z" fill="white"/>
<path fill-rule="evenodd" clip-rule="evenodd" d="M23.5286 14.6388L26.5449 11.6938C24.6924 9.97191 22.2818 8.91504 19.3961 8.91504C15.2161 8.91504 11.6061 11.3138 9.84863 14.805L13.3043 17.4888C14.1711 14.9119 16.5699 13.0475 19.3961 13.0475C21.403 13.0475 22.7568 13.9144 23.5286 14.6388Z" fill="#EA4335"/>
<path fill-rule="evenodd" clip-rule="evenodd" d="M29.4302 17.6553L19.8076 17.6553V21.6215L25.2858 21.6215C25.1671 22.6071 24.5258 24.0915 23.1008 25.089L26.4733 27.7015C28.4921 25.8371 29.6558 23.094 29.6558 19.8403C29.6558 18.9615 29.5846 18.3203 29.4302 17.6553Z" fill="#4285F4"/>
<path fill-rule="evenodd" clip-rule="evenodd" d="M13.316 21.7159C13.0904 21.0509 12.9597 20.3384 12.9597 19.6022C12.9597 18.8659 13.0904 18.1534 13.3041 17.4884L9.8485 14.8047C9.12412 16.2534 8.7085 17.8803 8.7085 19.6022C8.7085 21.3241 9.12412 22.9509 9.8485 24.3997L13.316 21.7159Z" fill="#FBBC05"/>
<path fill-rule="evenodd" clip-rule="evenodd" d="M19.396 30.2896C22.2816 30.2896 24.7041 29.3396 26.4735 27.7008L23.101 25.0883C22.1985 25.7177 20.9872 26.1571 19.396 26.1571C16.5697 26.1571 14.171 24.2927 13.316 21.7158L9.86035 24.3996C11.6179 27.8908 15.216 30.2896 19.396 30.2896Z" fill="#34A853"/>
</svg>
