<svg width="210" height="210" viewBox="0 0 210 210" fill="none" xmlns="http://www.w3.org/2000/svg">
<rect x="132" y="106" width="26" height="11" rx="2" fill="#BD34D1"/>
<path d="M111.833 81C112.889 78.6168 113.787 75.7923 114.761 72.8275L114.762 72.8252C114.926 72.3162 115.092 71.8024 115.261 71.285C116.659 66.9964 118.231 62.4841 120.563 59.0482C122.941 55.5454 126.227 53 131 53H132V56H131C127.523 56 125.059 57.7671 123.045 60.733C120.987 63.7659 119.527 67.8786 118.113 72.215C117.948 72.7224 117.783 73.2335 117.617 73.7459C116.819 76.2201 116 78.5 115.089 81H111.833Z" fill="#EBC2F1"/>
<path d="M111.833 85C112.889 87.3832 113.798 90.1945 114.761 93.1725L114.762 93.1748C114.926 93.6838 115.092 94.1976 115.261 94.715C116.659 99.0036 118.231 103.516 120.563 106.952C122.941 110.455 126.227 113 131 113H132V110H131C127.523 110 125.059 108.233 123.045 105.267C120.987 102.234 119.527 98.1214 118.113 93.785C117.948 93.2776 117.783 92.7665 117.617 92.2541C116.819 89.7799 116 87.5 115.089 85H111.833Z" fill="#EBC2F1"/>
<path d="M98.167 81C97.111 78.6168 96.2133 75.7923 95.2392 72.8275L95.2384 72.8252C95.0739 72.3162 94.9077 71.8024 94.739 71.285C93.3405 66.9964 91.7689 62.4841 89.4368 59.0482C87.0593 55.5454 83.7734 53 79.0004 53H78.0003V56H79.0004C82.4774 56 84.9415 57.7671 86.9546 60.733C89.0132 63.7659 90.4728 67.8786 91.8868 72.215C92.0522 72.7224 92.2172 73.2335 92.3826 73.7459C93.1813 76.2201 94 78.5 94.9115 81H98.167Z" fill="#EBC2F1"/>
<path d="M98.167 85C97.111 87.3832 96.202 90.1945 95.2392 93.1725L95.2384 93.1748C95.0739 93.6838 94.9077 94.1976 94.739 94.715C93.3405 99.0036 91.7689 103.516 89.4368 106.952C87.0593 110.455 83.7734 113 79.0004 113H78.0003V110H79.0004C82.4774 110 84.9415 108.233 86.9546 105.267C89.0132 102.234 90.4728 98.1214 91.8868 93.785C92.0522 93.2776 92.2172 92.7665 92.3826 92.2541C93.1813 89.7799 94 87.5 94.9115 85H98.167Z" fill="#EBC2F1"/>
<rect width="26" height="11" rx="2" transform="matrix(1 0 0 -1 132 60)" fill="#BD34D1"/>
<rect width="26" height="11" rx="2" transform="matrix(-1 0 0 1 78 106)" fill="#BD34D1"/>
<rect x="78" y="60" width="26" height="11" rx="2" transform="rotate(-180 78 60)" fill="#BD34D1"/>
<path fill-rule="evenodd" clip-rule="evenodd" d="M82 78.5C82 76.8431 83.3431 75.5 85 75.5H125C126.657 75.5 128 76.8431 128 78.5V88.5C128 90.1569 126.657 91.5 125 91.5H85C83.3431 91.5 82 90.1569 82 88.5V78.5Z" fill="#BD34D1"/>
<path d="M85.2242 88.2758V78.7242H124.776V88.2758H85.2242Z" stroke="#BD34D1" stroke-opacity="0.3" stroke-width="6.44841"/>
</svg>
