<svg width="4200" height="2202" viewBox="0 0 4200 2202" fill="none" xmlns="http://www.w3.org/2000/svg">
<g clip-path="url(#clip0)">
<rect width="4200" height="2202" fill="white"/>
<path fill-rule="evenodd" clip-rule="evenodd" d="M0 375H4200V1478H0V375Z" fill="url(#paint0_linear)"/>
<path fill-rule="evenodd" clip-rule="evenodd" d="M2867.52 520.273C2583.14 418.082 2190.03 436.406 1914.57 526.086C1639.11 615.766 1427 625.937 1352.3 622.637C1277.6 619.337 329.175 597.946 8.0201e-07 442.5C6.10352e-05 293 3.13196e-05 0 3.13196e-05 0H4200C4200 0 4200 309.491 4200 466.5C3874.15 632.509 3033.21 579.813 2867.52 520.273Z" fill="url(#paint1_linear)"/>
<path opacity="0.4" fill-rule="evenodd" clip-rule="evenodd" d="M1335 251C1429.44 251 1506 174.441 1506 80C1506 -14.4407 1429.44 -91 1335 -91C1240.56 -91 1164 -14.4407 1164 80C1164 174.441 1240.56 251 1335 251Z" fill="#9E96F7"/>
<path fill-rule="evenodd" clip-rule="evenodd" d="M2980.17 88.0484C2983.39 92.0304 2982.77 97.8797 2978.78 101.113C2974.78 104.347 2968.93 103.74 2965.71 99.7575C2962.48 95.7755 2963.11 89.9262 2967.1 86.6928C2971.09 83.4593 2976.94 84.0663 2980.17 88.0484ZM2602.83 405.552C2606.82 402.318 2607.44 396.469 2604.22 392.487C2600.99 388.505 2595.14 387.898 2591.15 391.131C2587.16 394.365 2586.53 400.214 2589.76 404.196C2592.98 408.178 2598.83 408.785 2602.83 405.552ZM2573.91 428.971C2577.9 425.737 2578.52 419.887 2575.3 415.905C2572.07 411.922 2566.22 411.316 2562.23 414.549C2558.24 417.783 2557.62 423.633 2560.84 427.615C2564.06 431.597 2569.91 432.204 2573.91 428.971ZM2633.14 369.069C2636.36 373.051 2635.74 378.9 2631.75 382.133C2627.75 385.367 2621.9 384.76 2618.68 380.778C2615.45 376.796 2616.08 370.946 2620.07 367.713C2624.06 364.48 2629.91 365.087 2633.14 369.069ZM2660.67 358.715C2664.66 355.482 2665.28 349.632 2662.06 345.65C2658.83 341.668 2652.98 341.061 2648.99 344.295C2644.99 347.528 2644.37 353.377 2647.6 357.359C2650.82 361.342 2656.67 361.948 2660.67 358.715ZM2690.98 322.232C2694.2 326.214 2693.58 332.063 2689.58 335.297C2685.59 338.53 2679.74 337.923 2676.52 333.941C2673.29 329.959 2673.91 324.11 2677.91 320.876C2681.9 317.643 2687.75 318.25 2690.98 322.232ZM2718.5 311.878C2722.5 308.645 2723.12 302.796 2719.89 298.814C2716.67 294.831 2710.82 294.225 2706.83 297.458C2702.83 300.691 2702.21 306.541 2705.44 310.523C2708.66 314.505 2714.51 315.112 2718.5 311.878ZM2748.81 275.395C2752.04 279.377 2751.42 285.227 2747.42 288.46C2743.43 291.693 2737.58 291.086 2734.35 287.104C2731.13 283.122 2731.75 277.273 2735.75 274.04C2739.74 270.806 2745.59 271.413 2748.81 275.395ZM2776.34 265.042C2780.34 261.808 2780.96 255.959 2777.73 251.977C2774.51 247.995 2768.66 247.388 2764.66 250.621C2760.67 253.855 2760.05 259.704 2763.27 263.686C2766.5 267.668 2772.35 268.275 2776.34 265.042ZM2806.65 228.559C2809.88 232.541 2809.25 238.39 2805.26 241.623C2801.27 244.857 2795.42 244.25 2792.19 240.268C2788.97 236.286 2789.59 230.436 2793.58 227.203C2797.58 223.97 2803.43 224.576 2806.65 228.559ZM2834.18 218.205C2838.17 214.972 2838.8 209.122 2835.57 205.14C2832.35 201.158 2826.5 200.551 2822.5 203.785C2818.51 207.018 2817.89 212.867 2821.11 216.849C2824.34 220.831 2830.19 221.438 2834.18 218.205ZM2864.49 181.722C2867.72 185.704 2867.09 191.553 2863.1 194.787C2859.11 198.02 2853.26 197.413 2850.03 193.431C2846.81 189.449 2847.43 183.6 2851.42 180.366C2855.42 177.133 2861.27 177.74 2864.49 181.722ZM2892.02 171.368C2896.01 168.135 2896.63 162.286 2893.41 158.304C2890.19 154.321 2884.33 153.715 2880.34 156.948C2876.35 160.181 2875.73 166.031 2878.95 170.013C2882.18 173.995 2888.03 174.602 2892.02 171.368ZM2922.33 134.885C2925.55 138.867 2924.93 144.717 2920.94 147.95C2916.95 151.183 2911.09 150.576 2907.87 146.594C2904.65 142.612 2905.27 136.763 2909.26 133.53C2913.25 130.296 2919.1 130.903 2922.33 134.885ZM2949.86 124.532C2953.85 121.298 2954.47 115.449 2951.25 111.467C2948.02 107.485 2942.17 106.878 2938.18 110.111C2934.19 113.345 2933.56 119.194 2936.79 123.176C2940.01 127.158 2945.86 127.765 2949.86 124.532ZM3007.7 77.6948C3011.69 74.4614 3012.31 68.6121 3009.09 64.63C3005.86 60.6479 3000.01 60.041 2996.02 63.2744C2992.03 66.5078 2991.4 72.3571 2994.63 76.3392C2997.85 80.3213 3003.7 80.9282 3007.7 77.6948ZM3038.01 41.2117C3041.23 45.1938 3040.61 51.0431 3036.62 54.2765C3032.62 57.5099 3026.77 56.903 3023.55 52.9209C3020.32 48.9388 3020.95 43.0895 3024.94 39.8561C3028.93 36.6227 3034.78 37.2296 3038.01 41.2117ZM2597.26 457.811C2601.26 454.577 2601.88 448.728 2598.65 444.746C2595.43 440.764 2589.58 440.157 2585.58 443.39C2581.59 446.624 2580.97 452.473 2584.19 456.455C2587.42 460.437 2593.27 461.044 2597.26 457.811ZM2627.57 421.328C2630.8 425.31 2630.17 431.159 2626.18 434.392C2622.19 437.626 2616.34 437.019 2613.11 433.037C2609.89 429.055 2610.51 423.206 2614.5 419.972C2618.5 416.739 2624.35 417.346 2627.57 421.328ZM2655.1 410.974C2659.09 407.741 2659.72 401.891 2656.49 397.909C2653.27 393.927 2647.42 393.32 2643.42 396.554C2639.43 399.787 2638.81 405.636 2642.03 409.619C2645.26 413.601 2651.11 414.208 2655.1 410.974ZM2685.41 374.491C2688.64 378.473 2688.01 384.322 2684.02 387.556C2680.03 390.789 2674.18 390.182 2670.95 386.2C2667.73 382.218 2668.35 376.369 2672.34 373.135C2676.34 369.902 2682.19 370.509 2685.41 374.491ZM2712.94 364.137C2716.93 360.904 2717.55 355.055 2714.33 351.073C2711.11 347.091 2705.25 346.484 2701.26 349.717C2697.27 352.95 2696.65 358.8 2699.87 362.782C2703.1 366.764 2708.95 367.371 2712.94 364.137ZM2743.25 327.654C2746.47 331.636 2745.85 337.486 2741.86 340.719C2737.87 343.952 2732.01 343.346 2728.79 339.363C2725.57 335.381 2726.19 329.532 2730.18 326.299C2734.17 323.065 2740.02 323.672 2743.25 327.654ZM2770.78 317.301C2774.77 314.067 2775.39 308.218 2772.17 304.236C2768.94 300.254 2763.09 299.647 2759.1 302.88C2755.11 306.114 2754.48 311.963 2757.71 315.945C2760.93 319.927 2766.78 320.534 2770.78 317.301ZM2801.09 280.818C2804.31 284.8 2803.69 290.649 2799.7 293.882C2795.7 297.116 2789.85 296.509 2786.63 292.527C2783.4 288.545 2784.03 282.695 2788.02 279.462C2792.01 276.229 2797.86 276.836 2801.09 280.818ZM2828.62 270.464C2832.61 267.231 2833.23 261.381 2830.01 257.399C2826.78 253.417 2820.93 252.81 2816.94 256.044C2812.95 259.277 2812.32 265.126 2815.55 269.108C2818.77 273.091 2824.62 273.697 2828.62 270.464ZM2858.93 233.981C2862.15 237.963 2861.53 243.812 2857.54 247.046C2853.54 250.279 2847.69 249.672 2844.47 245.69C2841.24 241.708 2841.87 235.859 2845.86 232.625C2849.85 229.392 2855.7 229.999 2858.93 233.981ZM2886.45 223.627C2890.45 220.394 2891.07 214.545 2887.85 210.563C2884.62 206.581 2878.77 205.974 2874.78 209.207C2870.78 212.44 2870.16 218.29 2873.39 222.272C2876.61 226.254 2882.46 226.861 2886.45 223.627ZM2916.77 187.144C2919.99 191.126 2919.37 196.976 2915.37 200.209C2911.38 203.442 2905.53 202.835 2902.31 198.853C2899.08 194.871 2899.7 189.022 2903.7 185.789C2907.69 182.555 2913.54 183.162 2916.77 187.144ZM2944.29 176.791C2948.29 173.557 2948.91 167.708 2945.68 163.726C2942.46 159.744 2936.61 159.137 2932.62 162.37C2928.62 165.604 2928 171.453 2931.22 175.435C2934.45 179.417 2940.3 180.024 2944.29 176.791ZM2974.6 140.308C2977.83 144.29 2977.21 150.139 2973.21 153.372C2969.22 156.606 2963.37 155.999 2960.14 152.017C2956.92 148.035 2957.54 142.185 2961.54 138.952C2965.53 135.719 2971.38 136.325 2974.6 140.308ZM3002.13 129.954C3006.12 126.72 3006.75 120.871 3003.52 116.889C3000.3 112.907 2994.45 112.3 2990.45 115.534C2986.46 118.767 2985.84 124.616 2989.06 128.598C2992.29 132.58 2998.14 133.187 3002.13 129.954ZM3032.44 93.4708C3035.67 97.4529 3035.04 103.302 3031.05 106.536C3027.06 109.769 3021.21 109.162 3017.98 105.18C3014.76 101.198 3015.38 95.3486 3019.37 92.1152C3023.37 88.8818 3029.22 89.4887 3032.44 93.4708ZM3059.97 83.1172C3063.96 79.8838 3064.59 74.0345 3061.36 70.0524C3058.14 66.0704 3052.29 65.4634 3048.29 68.6968C3044.3 71.9303 3043.68 77.7795 3046.9 81.7616C3050.13 85.7437 3055.98 86.3506 3059.97 83.1172ZM2622.01 473.587C2625.23 477.569 2624.61 483.418 2620.62 486.652C2616.62 489.885 2610.77 489.278 2607.55 485.296C2604.32 481.314 2604.95 475.465 2608.94 472.231C2612.93 468.998 2618.78 469.605 2622.01 473.587ZM2649.54 463.233C2653.53 460 2654.15 454.151 2650.93 450.168C2647.7 446.186 2641.85 445.579 2637.86 448.813C2633.87 452.046 2633.24 457.896 2636.47 461.878C2639.69 465.86 2645.54 466.467 2649.54 463.233ZM2679.85 426.75C2683.07 430.732 2682.45 436.582 2678.46 439.815C2674.46 443.048 2668.61 442.441 2665.39 438.459C2662.16 434.477 2662.79 428.628 2666.78 425.395C2670.77 422.161 2676.62 422.768 2679.85 426.75ZM2707.37 416.397C2711.37 413.163 2711.99 407.314 2708.77 403.332C2705.54 399.35 2699.69 398.743 2695.7 401.976C2691.7 405.21 2691.08 411.059 2694.31 415.041C2697.53 419.023 2703.38 419.63 2707.37 416.397ZM2737.69 379.913C2740.91 383.896 2740.29 389.745 2736.29 392.978C2732.3 396.212 2726.45 395.605 2723.23 391.623C2720 387.641 2720.62 381.791 2724.62 378.558C2728.61 375.324 2734.46 375.931 2737.69 379.913ZM2765.21 369.56C2769.21 366.326 2769.83 360.477 2766.6 356.495C2763.38 352.513 2757.53 351.906 2753.54 355.139C2749.54 358.373 2748.92 364.222 2752.14 368.204C2755.37 372.186 2761.22 372.793 2765.21 369.56ZM2795.52 333.077C2798.75 337.059 2798.13 342.908 2794.13 346.142C2790.14 349.375 2784.29 348.768 2781.06 344.786C2777.84 340.804 2778.46 334.955 2782.46 331.721C2786.45 328.488 2792.3 329.095 2795.52 333.077ZM2823.05 322.723C2827.04 319.49 2827.67 313.64 2824.44 309.658C2821.22 305.676 2815.37 305.069 2811.37 308.303C2807.38 311.536 2806.76 317.385 2809.98 321.368C2813.21 325.35 2819.06 325.957 2823.05 322.723ZM2853.36 286.24C2856.59 290.222 2855.96 296.071 2851.97 299.305C2847.98 302.538 2842.13 301.931 2838.9 297.949C2835.68 293.967 2836.3 288.118 2840.29 284.884C2844.29 281.651 2850.14 282.258 2853.36 286.24ZM2880.89 275.886C2884.88 272.653 2885.51 266.804 2882.28 262.822C2879.06 258.84 2873.21 258.233 2869.21 261.466C2865.22 264.7 2864.6 270.549 2867.82 274.531C2871.05 278.513 2876.9 279.12 2880.89 275.886ZM2911.2 239.403C2914.43 243.385 2913.8 249.235 2909.81 252.468C2905.82 255.702 2899.97 255.095 2896.74 251.113C2893.52 247.13 2894.14 241.281 2898.13 238.048C2902.13 234.814 2907.98 235.421 2911.2 239.403ZM2938.73 229.05C2942.72 225.816 2943.34 219.967 2940.12 215.985C2936.9 212.003 2931.04 211.396 2927.05 214.629C2923.06 217.863 2922.44 223.712 2925.66 227.694C2928.88 231.676 2934.74 232.283 2938.73 229.05ZM2969.04 192.567C2972.26 196.549 2971.64 202.398 2967.65 205.631C2963.66 208.865 2957.8 208.258 2954.58 204.276C2951.35 200.294 2951.98 194.444 2955.97 191.211C2959.96 187.978 2965.81 188.585 2969.04 192.567ZM2996.57 182.213C3000.56 178.98 3001.18 173.13 2997.96 169.148C2994.73 165.166 2988.88 164.559 2984.89 167.793C2980.9 171.026 2980.27 176.875 2983.5 180.857C2986.72 184.84 2992.57 185.447 2996.57 182.213ZM3026.88 145.73C3030.1 149.712 3029.48 155.561 3025.49 158.795C3021.49 162.028 3015.64 161.421 3012.42 157.439C3009.19 153.457 3009.82 147.608 3013.81 144.374C3017.8 141.141 3023.65 141.748 3026.88 145.73ZM3054.41 135.376C3058.4 132.143 3059.02 126.294 3055.8 122.312C3052.57 118.329 3046.72 117.723 3042.73 120.956C3038.74 124.189 3038.11 130.039 3041.34 134.021C3044.56 138.003 3050.41 138.61 3054.41 135.376ZM3084.72 98.8932C3087.94 102.875 3087.32 108.725 3083.33 111.958C3079.33 115.191 3073.48 114.584 3070.26 110.602C3067.03 106.62 3067.65 100.771 3071.65 97.5376C3075.64 94.3042 3081.49 94.9111 3084.72 98.8932ZM2643.97 515.492C2647.96 512.259 2648.59 506.41 2645.36 502.428C2642.14 498.445 2636.29 497.839 2632.29 501.072C2628.3 504.305 2627.68 510.155 2630.9 514.137C2634.13 518.119 2639.98 518.726 2643.97 515.492ZM2674.28 479.009C2677.51 482.991 2676.88 488.841 2672.89 492.074C2668.9 495.307 2663.05 494.7 2659.82 490.718C2656.6 486.736 2657.22 480.887 2661.21 477.654C2665.21 474.42 2671.06 475.027 2674.28 479.009ZM2701.81 468.656C2705.8 465.422 2706.43 459.573 2703.2 455.591C2699.98 451.609 2694.13 451.002 2690.13 454.235C2686.14 457.469 2685.52 463.318 2688.74 467.3C2691.97 471.282 2697.82 471.889 2701.81 468.656ZM2732.12 432.173C2735.35 436.155 2734.72 442.004 2730.73 445.237C2726.74 448.471 2720.89 447.864 2717.66 443.882C2714.44 439.9 2715.06 434.05 2719.05 430.817C2723.05 427.584 2728.9 428.19 2732.12 432.173ZM2759.65 421.819C2763.64 418.586 2764.26 412.736 2761.04 408.754C2757.82 404.772 2751.96 404.165 2747.97 407.399C2743.98 410.632 2743.36 416.481 2746.58 420.463C2749.8 424.445 2755.66 425.052 2759.65 421.819ZM2789.96 385.336C2793.18 389.318 2792.56 395.167 2788.57 398.401C2784.58 401.634 2778.72 401.027 2775.5 397.045C2772.27 393.063 2772.9 387.214 2776.89 383.98C2780.88 380.747 2786.73 381.354 2789.96 385.336ZM2817.49 374.982C2821.48 371.749 2822.1 365.9 2818.88 361.917C2815.65 357.935 2809.8 357.328 2805.81 360.562C2801.82 363.795 2801.19 369.645 2804.42 373.627C2807.64 377.609 2813.49 378.216 2817.49 374.982ZM2847.8 338.499C2851.02 342.481 2850.4 348.331 2846.41 351.564C2842.41 354.797 2836.56 354.19 2833.34 350.208C2830.11 346.226 2830.74 340.377 2834.73 337.144C2838.72 333.91 2844.57 334.517 2847.8 338.499ZM2875.33 328.146C2879.32 324.912 2879.94 319.063 2876.72 315.081C2873.49 311.099 2867.64 310.492 2863.65 313.725C2859.66 316.959 2859.03 322.808 2862.26 326.79C2865.48 330.772 2871.33 331.379 2875.33 328.146ZM2905.64 291.662C2908.86 295.645 2908.24 301.494 2904.25 304.727C2900.25 307.961 2894.4 307.354 2891.18 303.372C2887.95 299.39 2888.57 293.54 2892.57 290.307C2896.56 287.073 2902.41 287.68 2905.64 291.662ZM2933.16 281.309C2937.16 278.075 2937.78 272.226 2934.56 268.244C2931.33 264.262 2925.48 263.655 2921.49 266.888C2917.49 270.122 2916.87 275.971 2920.1 279.953C2923.32 283.935 2929.17 284.542 2933.16 281.309ZM2963.47 244.826C2966.7 248.808 2966.08 254.657 2962.08 257.891C2958.09 261.124 2952.24 260.517 2949.02 256.535C2945.79 252.553 2946.41 246.704 2950.41 243.47C2954.4 240.237 2960.25 240.844 2963.47 244.826ZM2991 234.472C2995 231.239 2995.62 225.39 2992.39 221.407C2989.17 217.425 2983.32 216.818 2979.33 220.052C2975.33 223.285 2974.71 229.135 2977.93 233.117C2981.16 237.099 2987.01 237.706 2991 234.472ZM3021.31 197.989C3024.54 201.971 3023.91 207.82 3019.92 211.054C3015.93 214.287 3010.08 213.68 3006.85 209.698C3003.63 205.716 3004.25 199.867 3008.24 196.633C3012.24 193.4 3018.09 194.007 3021.31 197.989ZM3048.84 187.635C3052.83 184.402 3053.46 178.553 3050.23 174.571C3047.01 170.589 3041.16 169.982 3037.16 173.215C3033.17 176.448 3032.55 182.298 3035.77 186.28C3039 190.262 3044.85 190.869 3048.84 187.635ZM3079.15 151.152C3082.38 155.134 3081.75 160.984 3077.76 164.217C3073.77 167.45 3067.92 166.844 3064.69 162.861C3061.47 158.879 3062.09 153.03 3066.08 149.797C3070.08 146.563 3075.93 147.17 3079.15 151.152ZM3106.68 140.799C3110.67 137.565 3111.3 131.716 3108.07 127.734C3104.85 123.752 3099 123.145 3095 126.378C3091.01 129.612 3090.39 135.461 3093.61 139.443C3096.84 143.425 3102.69 144.032 3106.68 140.799ZM2668.72 531.268C2671.94 535.25 2671.32 541.1 2667.33 544.333C2663.33 547.566 2657.48 546.96 2654.26 542.977C2651.03 538.995 2651.66 533.146 2655.65 529.913C2659.64 526.679 2665.49 527.286 2668.72 531.268ZM2696.25 520.915C2700.24 517.681 2700.86 511.832 2697.64 507.85C2694.41 503.868 2688.56 503.261 2684.57 506.494C2680.58 509.728 2679.95 515.577 2683.18 519.559C2686.4 523.541 2692.25 524.148 2696.25 520.915ZM2726.56 484.432C2729.78 488.414 2729.16 494.263 2725.17 497.496C2721.17 500.73 2715.32 500.123 2712.1 496.141C2708.87 492.159 2709.49 486.309 2713.49 483.076C2717.48 479.843 2723.33 480.45 2726.56 484.432ZM2754.08 474.078C2758.08 470.845 2758.7 464.995 2755.48 461.013C2752.25 457.031 2746.4 456.424 2742.41 459.658C2738.41 462.891 2737.79 468.74 2741.02 472.722C2744.24 476.705 2750.09 477.311 2754.08 474.078ZM2784.39 437.595C2787.62 441.577 2787 447.426 2783 450.66C2779.01 453.893 2773.16 453.286 2769.94 449.304C2766.71 445.322 2767.33 439.473 2771.33 436.239C2775.32 433.006 2781.17 433.613 2784.39 437.595ZM2811.92 427.241C2815.92 424.008 2816.54 418.159 2813.31 414.177C2810.09 410.194 2804.24 409.588 2800.25 412.821C2796.25 416.054 2795.63 421.904 2798.85 425.886C2802.08 429.868 2807.93 430.475 2811.92 427.241ZM2842.23 390.758C2845.46 394.74 2844.83 400.59 2840.84 403.823C2836.85 407.056 2831 406.449 2827.77 402.467C2824.55 398.485 2825.17 392.636 2829.16 389.403C2833.16 386.169 2839.01 386.776 2842.23 390.758ZM2869.76 380.405C2873.75 377.171 2874.38 371.322 2871.15 367.34C2867.93 363.358 2862.08 362.751 2858.08 365.984C2854.09 369.218 2853.47 375.067 2856.69 379.049C2859.92 383.031 2865.77 383.638 2869.76 380.405ZM2900.07 343.922C2903.3 347.904 2902.67 353.753 2898.68 356.986C2894.69 360.22 2888.84 359.613 2885.61 355.631C2882.39 351.649 2883.01 345.799 2887 342.566C2891 339.333 2896.85 339.939 2900.07 343.922ZM2927.6 333.568C2931.59 330.335 2932.22 324.485 2928.99 320.503C2925.77 316.521 2919.92 315.914 2915.92 319.148C2911.93 322.381 2911.31 328.23 2914.53 332.212C2917.76 336.194 2923.61 336.801 2927.6 333.568ZM2957.91 297.085C2961.13 301.067 2960.51 306.916 2956.52 310.15C2952.53 313.383 2946.68 312.776 2943.45 308.794C2940.23 304.812 2940.85 298.963 2944.84 295.729C2948.83 292.496 2954.69 293.103 2957.91 297.085ZM2985.44 286.731C2989.43 283.498 2990.05 277.649 2986.83 273.666C2983.6 269.684 2977.75 269.077 2973.76 272.311C2969.77 275.544 2969.15 281.394 2972.37 285.376C2975.59 289.358 2981.45 289.965 2985.44 286.731ZM3015.75 250.248C3018.97 254.23 3018.35 260.08 3014.36 263.313C3010.36 266.546 3004.51 265.939 3001.29 261.957C2998.06 257.975 2998.69 252.126 3002.68 248.893C3006.67 245.659 3012.52 246.266 3015.75 250.248ZM3043.28 239.895C3047.27 236.661 3047.89 230.812 3044.67 226.83C3041.44 222.848 3035.59 222.241 3031.6 225.474C3027.61 228.708 3026.98 234.557 3030.21 238.539C3033.43 242.521 3039.28 243.128 3043.28 239.895ZM3073.59 203.411C3076.81 207.393 3076.19 213.243 3072.2 216.476C3068.2 219.71 3062.35 219.103 3059.13 215.121C3055.9 211.138 3056.53 205.289 3060.52 202.056C3064.51 198.822 3070.36 199.429 3073.59 203.411ZM3101.12 193.058C3105.11 189.824 3105.73 183.975 3102.51 179.993C3099.28 176.011 3093.43 175.404 3089.44 178.637C3085.45 181.871 3084.82 187.72 3088.05 191.702C3091.27 195.684 3097.12 196.291 3101.12 193.058ZM3131.43 156.575C3134.65 160.557 3134.03 166.406 3130.03 169.639C3126.04 172.873 3120.19 172.266 3116.97 168.284C3113.74 164.302 3114.36 158.453 3118.36 155.219C3122.35 151.986 3128.2 152.593 3131.43 156.575Z" fill="url(#paint2_linear)"/>
<path fill-rule="evenodd" clip-rule="evenodd" d="M1302 447C1302 500.572 1345.43 544 1399 544C1452.57 544 1496 500.572 1496 447" fill="#7569F4"/>
<path fill-rule="evenodd" clip-rule="evenodd" d="M1316 519.435V515.198C1316.33 515.212 1316.66 515.22 1317 515.22C1327.17 515.22 1332.3 508.753 1337.73 501.906C1343.54 494.577 1349.54 487 1361.74 487C1373.94 487 1379.95 494.577 1385.76 501.906C1391.18 508.753 1396.31 515.22 1406.49 515.22C1416.66 515.22 1421.79 508.753 1427.22 501.906C1433.03 494.577 1439.04 487 1451.23 487C1463.43 487 1469.44 494.577 1475.25 501.906C1480.68 508.753 1485.81 515.22 1495.99 515.22C1506.16 515.22 1511.29 508.753 1516.72 501.906C1522.53 494.577 1528.54 487 1540.74 487C1552.94 487 1558.94 494.577 1564.75 501.906C1570.18 508.753 1575.31 515.22 1585.49 515.22C1595.66 515.22 1600.79 508.752 1606.22 501.904C1612.03 494.577 1618.04 487 1630.24 487C1642.44 487 1648.45 494.577 1654.26 501.904C1659.69 508.752 1664.82 515.22 1675 515.22V519.453C1662.8 519.453 1656.79 511.876 1650.98 504.548C1645.55 497.701 1640.42 491.233 1630.24 491.233C1620.06 491.233 1614.94 497.701 1609.51 504.548C1603.7 511.876 1597.69 519.453 1585.49 519.453C1573.29 519.453 1567.28 511.876 1561.47 504.547C1556.04 497.699 1550.91 491.233 1540.74 491.233C1530.56 491.233 1525.43 497.699 1520 504.547C1514.19 511.876 1508.18 519.453 1495.99 519.453C1483.79 519.453 1477.78 511.876 1471.97 504.547C1466.54 497.699 1461.41 491.233 1451.23 491.233C1441.06 491.233 1435.93 497.699 1430.5 504.547C1424.69 511.876 1418.68 519.453 1406.49 519.453C1394.29 519.453 1388.28 511.876 1382.47 504.548C1377.04 497.701 1371.92 491.233 1361.74 491.233C1351.57 491.233 1346.44 497.699 1341.01 504.547C1335.2 511.876 1329.19 519.453 1317 519.453C1316.66 519.453 1316.33 519.447 1316 519.435H1316ZM1316 547.252V543.015C1316.33 543.029 1316.66 543.036 1317 543.036C1327.17 543.036 1332.3 536.569 1337.73 529.722C1343.54 522.393 1349.54 514.816 1361.74 514.816C1373.94 514.816 1379.95 522.393 1385.76 529.722C1391.18 536.569 1396.31 543.036 1406.49 543.036C1416.66 543.036 1421.79 536.569 1427.22 529.722C1433.03 522.393 1439.04 514.816 1451.23 514.816C1463.43 514.816 1469.44 522.393 1475.25 529.722C1480.68 536.569 1485.81 543.036 1495.99 543.036C1506.16 543.036 1511.29 536.569 1516.72 529.722C1522.53 522.393 1528.54 514.816 1540.74 514.816C1552.94 514.816 1558.94 522.393 1564.75 529.722C1570.18 536.569 1575.31 543.036 1585.49 543.036C1595.66 543.036 1600.79 536.568 1606.22 529.721C1612.03 522.393 1618.04 514.816 1630.24 514.816C1642.44 514.816 1648.45 522.393 1654.26 529.721C1659.69 536.568 1664.82 543.036 1675 543.036V547.269C1662.8 547.269 1656.79 539.692 1650.98 532.365C1645.55 525.517 1640.42 519.049 1630.24 519.049C1620.06 519.049 1614.94 525.517 1609.51 532.365C1603.7 539.692 1597.69 547.269 1585.49 547.269C1573.29 547.269 1567.28 539.692 1561.47 532.363C1556.04 525.516 1550.91 519.049 1540.74 519.049C1530.56 519.049 1525.43 525.516 1520 532.363C1514.19 539.692 1508.18 547.269 1495.99 547.269C1483.79 547.269 1477.78 539.692 1471.97 532.363C1466.54 525.516 1461.41 519.049 1451.23 519.049C1441.06 519.049 1435.93 525.516 1430.5 532.363C1424.69 539.692 1418.68 547.269 1406.49 547.269C1394.29 547.269 1388.28 539.692 1382.47 532.365C1377.04 525.517 1371.92 519.049 1361.74 519.049C1351.57 519.049 1346.44 525.516 1341.01 532.363C1335.2 539.692 1329.19 547.269 1317 547.269C1316.66 547.269 1316.33 547.263 1316 547.252H1316ZM1316 575.068V570.831C1316.33 570.845 1316.66 570.853 1317 570.853C1327.17 570.853 1332.3 564.386 1337.73 557.539C1343.54 550.21 1349.54 542.633 1361.74 542.633C1373.94 542.633 1379.95 550.21 1385.76 557.539C1391.18 564.386 1396.31 570.853 1406.49 570.853C1416.66 570.853 1421.79 564.386 1427.22 557.539C1433.03 550.21 1439.04 542.633 1451.23 542.633C1463.43 542.633 1469.44 550.21 1475.25 557.539C1480.68 564.386 1485.81 570.853 1495.99 570.853C1506.16 570.853 1511.29 564.386 1516.72 557.539C1522.53 550.21 1528.54 542.633 1540.74 542.633C1552.94 542.633 1558.94 550.21 1564.75 557.539C1570.18 564.386 1575.31 570.853 1585.49 570.853C1595.66 570.853 1600.79 564.385 1606.22 557.537C1612.03 550.21 1618.04 542.633 1630.24 542.633C1642.44 542.633 1648.45 550.21 1654.26 557.537C1659.69 564.385 1664.82 570.853 1675 570.853V575.086C1662.8 575.086 1656.79 567.509 1650.98 560.181C1645.55 553.334 1640.42 546.866 1630.24 546.866C1620.06 546.866 1614.94 553.334 1609.51 560.181C1603.7 567.509 1597.69 575.086 1585.49 575.086C1573.29 575.086 1567.28 567.509 1561.47 560.18C1556.04 553.332 1550.91 546.866 1540.74 546.866C1530.56 546.866 1525.43 553.332 1520 560.18C1514.19 567.509 1508.18 575.086 1495.99 575.086C1483.79 575.086 1477.78 567.509 1471.97 560.18C1466.54 553.332 1461.41 546.866 1451.23 546.866C1441.06 546.866 1435.93 553.332 1430.5 560.18C1424.69 567.509 1418.68 575.086 1406.49 575.086C1394.29 575.086 1388.28 567.509 1382.47 560.181C1377.04 553.334 1371.92 546.866 1361.74 546.866C1351.57 546.866 1346.44 553.332 1341.01 560.18C1335.2 567.509 1329.19 575.086 1317 575.086C1316.66 575.086 1316.33 575.08 1316 575.068H1316ZM1316 602.885V598.648C1316.33 598.662 1316.66 598.669 1317 598.669C1327.17 598.669 1332.3 592.202 1337.73 585.355C1343.54 578.026 1349.54 570.449 1361.74 570.449C1373.94 570.449 1379.95 578.026 1385.76 585.355C1391.18 592.202 1396.31 598.669 1406.49 598.669C1416.66 598.669 1421.79 592.202 1427.22 585.355C1433.03 578.026 1439.04 570.449 1451.23 570.449C1463.43 570.449 1469.44 578.026 1475.25 585.355C1480.68 592.202 1485.81 598.669 1495.99 598.669C1506.16 598.669 1511.29 592.202 1516.72 585.355C1522.53 578.026 1528.54 570.449 1540.74 570.449C1552.94 570.449 1558.94 578.026 1564.75 585.355C1570.18 592.202 1575.31 598.669 1585.49 598.669C1595.66 598.669 1600.79 592.201 1606.22 585.354C1612.03 578.026 1618.04 570.449 1630.24 570.449C1642.44 570.449 1648.45 578.026 1654.26 585.354C1659.69 592.201 1664.82 598.669 1675 598.669V602.902C1662.8 602.902 1656.79 595.325 1650.98 587.998C1645.55 581.15 1640.42 574.682 1630.24 574.682C1620.06 574.682 1614.94 581.15 1609.51 587.998C1603.7 595.325 1597.69 602.902 1585.49 602.902C1573.29 602.902 1567.28 595.325 1561.47 587.996C1556.04 581.149 1550.91 574.682 1540.74 574.682C1530.56 574.682 1525.43 581.149 1520 587.996C1514.19 595.325 1508.18 602.902 1495.99 602.902C1483.79 602.902 1477.78 595.325 1471.97 587.996C1466.54 581.149 1461.41 574.682 1451.23 574.682C1441.06 574.682 1435.93 581.149 1430.5 587.996C1424.69 595.325 1418.68 602.902 1406.49 602.902C1394.29 602.902 1388.28 595.325 1382.47 587.998C1377.04 581.15 1371.92 574.682 1361.74 574.682C1351.57 574.682 1346.44 581.149 1341.01 587.996C1335.2 595.325 1329.19 602.902 1317 602.902C1316.66 602.902 1316.33 602.896 1316 602.885H1316ZM1316 631.166V626.929C1316.33 626.943 1316.66 626.951 1317 626.951C1327.17 626.951 1332.3 620.484 1337.73 613.637C1343.54 606.308 1349.54 598.731 1361.74 598.731C1373.94 598.731 1379.95 606.308 1385.76 613.637C1391.18 620.484 1396.31 626.951 1406.49 626.951C1416.66 626.951 1421.79 620.484 1427.22 613.637C1433.03 606.308 1439.04 598.731 1451.23 598.731C1463.43 598.731 1469.44 606.308 1475.25 613.637C1480.68 620.484 1485.81 626.951 1495.99 626.951C1506.16 626.951 1511.29 620.484 1516.72 613.637C1522.53 606.308 1528.54 598.731 1540.74 598.731C1552.94 598.731 1558.94 606.308 1564.75 613.637C1570.18 620.484 1575.31 626.951 1585.49 626.951C1595.66 626.951 1600.79 620.483 1606.22 613.635C1612.03 606.308 1618.04 598.731 1630.24 598.731C1642.44 598.731 1648.45 606.308 1654.26 613.635C1659.69 620.483 1664.82 626.951 1675 626.951V631.184C1662.8 631.184 1656.79 623.607 1650.98 616.279C1645.55 609.432 1640.42 602.964 1630.24 602.964C1620.06 602.964 1614.94 609.432 1609.51 616.279C1603.7 623.607 1597.69 631.184 1585.49 631.184C1573.29 631.184 1567.28 623.607 1561.47 616.278C1556.04 609.43 1550.91 602.964 1540.74 602.964C1530.56 602.964 1525.43 609.43 1520 616.278C1514.19 623.607 1508.18 631.184 1495.99 631.184C1483.79 631.184 1477.78 623.607 1471.97 616.278C1466.54 609.43 1461.41 602.964 1451.23 602.964C1441.06 602.964 1435.93 609.43 1430.5 616.278C1424.69 623.607 1418.68 631.184 1406.49 631.184C1394.29 631.184 1388.28 623.607 1382.47 616.279C1377.04 609.432 1371.92 602.964 1361.74 602.964C1351.57 602.964 1346.44 609.43 1341.01 616.278C1335.2 623.607 1329.19 631.184 1317 631.184C1316.66 631.184 1316.33 631.178 1316 631.166H1316ZM1316 658.983V654.746C1316.33 654.76 1316.66 654.767 1317 654.767C1327.17 654.767 1332.3 648.301 1337.73 641.453C1343.54 634.124 1349.54 626.547 1361.74 626.547C1373.94 626.547 1379.95 634.124 1385.76 641.453C1391.18 648.301 1396.31 654.767 1406.49 654.767C1416.66 654.767 1421.79 648.301 1427.22 641.453C1433.03 634.124 1439.04 626.547 1451.23 626.547C1463.43 626.547 1469.44 634.124 1475.25 641.453C1480.68 648.301 1485.81 654.767 1495.99 654.767C1506.16 654.767 1511.29 648.301 1516.72 641.453C1522.53 634.124 1528.54 626.547 1540.74 626.547C1552.94 626.547 1558.94 634.124 1564.75 641.453C1570.18 648.301 1575.31 654.767 1585.49 654.767C1595.66 654.767 1600.79 648.299 1606.22 641.452C1612.03 634.124 1618.04 626.547 1630.24 626.547C1642.44 626.547 1648.45 634.124 1654.26 641.452C1659.69 648.299 1664.82 654.767 1675 654.767V659C1662.8 659 1656.79 651.423 1650.98 644.096C1645.55 637.248 1640.42 630.78 1630.24 630.78C1620.06 630.78 1614.94 637.248 1609.51 644.096C1603.7 651.423 1597.69 659 1585.49 659C1573.29 659 1567.28 651.423 1561.47 644.094C1556.04 637.247 1550.91 630.78 1540.74 630.78C1530.56 630.78 1525.43 637.247 1520 644.094C1514.19 651.423 1508.18 659 1495.99 659C1483.79 659 1477.78 651.423 1471.97 644.094C1466.54 637.247 1461.41 630.78 1451.23 630.78C1441.06 630.78 1435.93 637.247 1430.5 644.094C1424.69 651.423 1418.68 659 1406.49 659C1394.29 659 1388.28 651.423 1382.47 644.096C1377.04 637.248 1371.92 630.78 1361.74 630.78C1351.57 630.78 1346.44 637.247 1341.01 644.094C1335.2 651.423 1329.19 659 1317 659C1316.66 659 1316.33 658.994 1316 658.983H1316Z" fill="#F5C98E"/>
<path d="M2695.53 2269.64C2734.22 2274.73 2774.32 2280 2853 2280C2901.89 2280 2950.17 2283.09 2998.6 2289.6L2998.93 2289.64C3037.62 2294.73 3077.72 2300 3156.4 2300C3235.08 2300 3275.18 2294.73 3313.87 2289.64L3314.2 2289.6C3351.4 2284.6 3386.5 2280 3458.8 2280C3530.53 2280 3565.64 2284.63 3602.52 2289.48L3603.4 2289.6L3603.73 2289.64C3642.43 2294.73 3682.52 2300 3761.2 2300C3839.88 2300 3879.98 2294.73 3918.67 2289.64L3919 2289.6C3956.2 2284.6 3991.3 2280 4063.6 2280C4135.33 2280 4170.44 2284.63 4207.32 2289.48L4208.2 2289.6L4208.53 2289.64C4247.22 2294.73 4287.32 2300 4366 2300V928C4294.27 928 4259.16 923.374 4222.28 918.516L4221.4 918.4L4221.07 918.357C4182.38 913.27 4142.28 908 4063.6 908C3984.92 908 3944.82 913.27 3906.13 918.357L3905.8 918.4C3868.6 923.4 3833.5 928 3761.2 928C3689.47 928 3654.36 923.374 3617.48 918.516L3616.6 918.4L3616.27 918.357C3577.58 913.27 3537.48 908 3458.8 908C3380.12 908 3340.02 913.27 3301.33 918.357L3301 918.4C3263.8 923.4 3228.7 928 3156.4 928C3084.1 928 3049 923.4 3011.8 918.4L3011.47 918.357C2972.78 913.27 2932.68 908 2854 908H2853C2805.27 908 2748 916.357 2708.07 916.357C2668.15 916.357 2629.28 906 2550.6 906C2471.92 906 2431.82 911.27 2393.12 916.357L2392.8 916.4C2355.6 921.4 2320.5 926 2248.2 926C2176.47 926 2141.36 921.374 2104.48 916.516L2103.27 916.357C2064.57 911.27 2024.48 906 1945.8 906C1867.12 906 1827.02 911.27 1788.32 916.357L1788 916.4C1750.8 921.4 1715.7 926 1643.4 926C1571.1 926 1536 921.4 1498.8 916.4L1498.47 916.357C1459.77 911.27 1419.68 906 1341 906H1350C1278.27 906 1243.16 901.374 1206.28 896.516L1205.07 896.357C1166.38 891.27 1126.28 886 1047.6 886C968.92 886 928.825 891.27 890.125 896.357L889.8 896.4C852.6 901.4 817.5 906 745.2 906C673.473 906 638.358 901.374 601.483 896.516L600.275 896.357C561.576 891.27 521.48 886 442.8 886C364.12 886 324.024 891.27 285.325 896.357L285 896.4C247.8 901.4 212.7 906 140.4 906C68.1 906 33 901.4 -4.2 896.4L-4.52505 896.357C-43.2242 891.27 -83.3203 886 -162 886V2240C-89.7 2240 -54.6 2244.6 -17.4 2249.6L-17.0741 2249.64C21.6248 2254.73 61.7209 2260 140.4 2260C219.079 2260 259.175 2254.73 297.874 2249.64L298.2 2249.6C335.4 2244.6 370.5 2240 442.8 2240C514.528 2240 549.642 2244.63 586.517 2249.48L587.726 2249.64C626.425 2254.73 666.521 2260 745.2 2260C823.879 2260 863.975 2254.73 902.674 2249.64L903 2249.6C940.2 2244.6 975.3 2240 1047.6 2240C1119.33 2240 1154.44 2244.63 1191.32 2249.48L1192.53 2249.64C1231.22 2254.73 1271.32 2260 1350 2260H1341C1413.3 2260 1448.4 2264.6 1485.6 2269.6L1485.93 2269.64C1524.62 2274.73 1564.72 2280 1643.4 2280C1722.08 2280 1762.17 2274.73 1800.87 2269.64L1801.2 2269.6C1838.4 2264.6 1873.5 2260 1945.8 2260C2017.53 2260 2052.64 2264.63 2089.52 2269.48L2090.73 2269.64C2129.42 2274.73 2169.52 2280 2248.2 2280C2326.88 2280 2366.97 2274.73 2405.67 2269.64L2406 2269.6C2443.2 2264.6 2478.3 2260 2550.6 2260C2622.33 2260 2657.44 2264.63 2694.32 2269.48L2695.53 2269.64Z" fill="url(#paint3_linear)"/>
<path opacity="0.12" fill-rule="evenodd" clip-rule="evenodd" d="M819.049 1001.16H792V1028.2H819.049V1001.16ZM871.918 1001.16H844.869V1028.2H871.918V1001.16ZM897.738 1001.16H924.787V1028.2H897.738V1001.16ZM977.656 1001.16H950.607V1028.2H977.656V1001.16ZM1003.48 1001.16H1030.52V1028.2H1003.48V1001.16ZM1083.39 1001.16H1056.34V1028.2H1083.39V1001.16ZM1109.21 1001.16H1136.26V1028.2H1109.21V1001.16ZM1189.13 1001.16H1162.08V1028.2H1189.13V1001.16ZM1214.95 1001.16H1242V1028.2H1214.95V1001.16ZM1296.1 1001.16H1269.05V1028.2H1296.1V1001.16ZM1321.92 1001.16H1348.97V1028.2H1321.92V1001.16ZM1401.84 1001.16H1374.79V1028.2H1401.84V1001.16ZM1427.66 1001.16H1454.7V1028.2H1427.66V1001.16ZM1507.57 1001.16H1480.52V1028.2H1507.57V1001.16ZM1533.39 1001.16H1560.44V1028.2H1533.39V1001.16ZM1613.31 1001.16H1586.26V1028.2H1613.31V1001.16ZM1639.13 1001.16H1666.18V1028.2H1639.13V1001.16ZM819.049 1089.64H792V1116.67H819.049V1089.64ZM844.869 1089.64H871.918V1116.67H844.869V1089.64ZM924.787 1089.64H897.738V1116.67H924.787V1089.64ZM950.607 1089.64H977.656V1116.67H950.607V1089.64ZM1030.52 1089.64H1003.48V1116.67H1030.52V1089.64ZM1056.34 1089.64H1083.39V1116.67H1056.34V1089.64ZM1136.26 1089.64H1109.21V1116.67H1136.26V1089.64ZM1162.08 1089.64H1189.13V1116.67H1162.08V1089.64ZM1242 1089.64H1214.95V1116.67H1242V1089.64ZM1269.05 1089.64H1296.1V1116.67H1269.05V1089.64ZM1348.97 1089.64H1321.92V1116.67H1348.97V1089.64ZM1374.79 1089.64H1401.84V1116.67H1374.79V1089.64ZM1454.7 1089.64H1427.66V1116.67H1454.7V1089.64ZM1480.52 1089.64H1507.57V1116.67H1480.52V1089.64ZM1560.44 1089.64H1533.39V1116.67H1560.44V1089.64ZM1586.26 1089.64H1613.31V1116.67H1586.26V1089.64ZM1666.18 1089.64H1639.13V1116.67H1666.18V1089.64ZM819.049 1045.4H846.098V1072.44H819.049V1045.4ZM898.967 1045.4H871.918V1072.44H898.967V1045.4ZM924.787 1045.4H951.836V1072.44H924.787V1045.4ZM1004.7 1045.4H977.656V1072.44H1004.7V1045.4ZM1030.52 1045.4H1057.57V1072.44H1030.52V1045.4ZM1110.44 1045.4H1083.39V1072.44H1110.44V1045.4ZM1136.26 1045.4H1163.31V1072.44H1136.26V1045.4ZM1216.18 1045.4H1189.13V1072.44H1216.18V1045.4ZM1242 1045.4H1269.05V1072.44H1242V1045.4ZM1321.92 1045.4H1294.87V1072.44H1321.92V1045.4ZM1347.74 1045.4H1374.79V1072.44H1347.74V1045.4ZM1427.66 1045.4H1400.61V1072.44H1427.66V1045.4ZM1453.48 1045.4H1480.52V1072.44H1453.48V1045.4ZM1533.39 1045.4H1506.34V1072.44H1533.39V1045.4ZM1559.21 1045.4H1586.26V1072.44H1559.21V1045.4ZM1639.13 1045.4H1612.08V1072.44H1639.13V1045.4ZM1664.95 1045.4H1692V1072.44H1664.95V1045.4ZM846.098 1133.88H819.049V1160.91H846.098V1133.88ZM871.918 1133.88H898.967V1160.91H871.918V1133.88ZM951.836 1133.88H924.787V1160.91H951.836V1133.88ZM977.656 1133.88H1004.7V1160.91H977.656V1133.88ZM1057.57 1133.88H1030.52V1160.91H1057.57V1133.88ZM1083.39 1133.88H1110.44V1160.91H1083.39V1133.88ZM1163.31 1133.88H1136.26V1160.91H1163.31V1133.88ZM1189.13 1133.88H1216.18V1160.91H1189.13V1133.88ZM1269.05 1133.88H1242V1160.91H1269.05V1133.88ZM1294.87 1133.88H1321.92V1160.91H1294.87V1133.88ZM1374.79 1133.88H1347.74V1160.91H1374.79V1133.88ZM1400.61 1133.88H1427.66V1160.91H1400.61V1133.88ZM1480.52 1133.88H1453.48V1160.91H1480.52V1133.88ZM1506.34 1133.88H1533.39V1160.91H1506.34V1133.88ZM1586.26 1133.88H1559.21V1160.91H1586.26V1133.88ZM1612.08 1133.88H1639.13V1160.91H1612.08V1133.88ZM1692 1133.88H1664.95V1160.91H1692V1133.88ZM792 1178.12H819.049V1205.15H792V1178.12ZM871.918 1178.12H844.869V1205.15H871.918V1178.12ZM897.738 1178.12H924.787V1205.15H897.738V1178.12ZM977.656 1178.12H950.607V1205.15H977.656V1178.12ZM1003.48 1178.12H1030.52V1205.15H1003.48V1178.12ZM1083.39 1178.12H1056.34V1205.15H1083.39V1178.12ZM1109.21 1178.12H1136.26V1205.15H1109.21V1178.12ZM1189.13 1178.12H1162.08V1205.15H1189.13V1178.12ZM1214.95 1178.12H1242V1205.15H1214.95V1178.12ZM1296.1 1178.12H1269.05V1205.15H1296.1V1178.12ZM1321.92 1178.12H1348.97V1205.15H1321.92V1178.12ZM1401.84 1178.12H1374.79V1205.15H1401.84V1178.12ZM1427.66 1178.12H1454.7V1205.15H1427.66V1178.12ZM1507.57 1178.12H1480.52V1205.15H1507.57V1178.12ZM1533.39 1178.12H1560.44V1205.15H1533.39V1178.12ZM1613.31 1178.12H1586.26V1205.15H1613.31V1178.12ZM1639.13 1178.12H1666.18V1205.15H1639.13V1178.12ZM846.098 1221.13H819.049V1248.16H846.098V1221.13ZM871.918 1221.13H898.967V1248.16H871.918V1221.13ZM951.836 1221.13H924.787V1248.16H951.836V1221.13ZM977.656 1221.13H1004.7V1248.16H977.656V1221.13ZM1057.57 1221.13H1030.52V1248.16H1057.57V1221.13ZM1083.39 1221.13H1110.44V1248.16H1083.39V1221.13ZM1163.31 1221.13H1136.26V1248.16H1163.31V1221.13ZM1189.13 1221.13H1216.18V1248.16H1189.13V1221.13ZM1269.05 1221.13H1242V1248.16H1269.05V1221.13ZM1294.87 1221.13H1321.92V1248.16H1294.87V1221.13ZM1374.79 1221.13H1347.74V1248.16H1374.79V1221.13ZM1400.61 1221.13H1427.66V1248.16H1400.61V1221.13ZM1480.52 1221.13H1453.48V1248.16H1480.52V1221.13ZM1506.34 1221.13H1533.39V1248.16H1506.34V1221.13ZM1586.26 1221.13H1559.21V1248.16H1586.26V1221.13ZM1612.08 1221.13H1639.13V1248.16H1612.08V1221.13ZM1692 1221.13H1664.95V1248.16H1692V1221.13Z" fill="#A3DED8"/>
<path fill-rule="evenodd" clip-rule="evenodd" d="M1352.79 1374.16C1409.31 1373.74 1455 1327.79 1455 1271.16C1455 1214.28 1408.89 1168.16 1352 1168.16C1329.27 1168.16 1308.25 1175.53 1291.21 1188C1291.48 1188 1291.74 1188 1292 1188C1348.89 1188 1395 1234.11 1395 1291C1395 1325.15 1378.38 1355.42 1352.79 1374.16Z" fill="url(#paint4_linear)"/>
<g opacity="0.7">
<path d="M2467 797L2573 747L2679 797L2785 747L2891 797L2997 747" stroke="#E5AEED" stroke-width="3" stroke-linecap="round"/>
<path d="M2467 810L2573 760L2679 810L2785 760L2891 810L2997 760" stroke="#E5AEED" stroke-width="3" stroke-linecap="round"/>
<path d="M2467 822L2573 772L2679 822L2785 772L2891 822L2997 772" stroke="#E5AEED" stroke-width="3" stroke-linecap="round"/>
<path d="M2467 835L2573 785L2679 835L2785 785L2891 835L2997 785" stroke="#E5AEED" stroke-width="3" stroke-linecap="round"/>
<path d="M2467 847L2573 797L2679 847L2785 797L2891 847L2997 797" stroke="#E5AEED" stroke-width="3" stroke-linecap="round"/>
<path d="M2467 859L2573 809L2679 859L2785 809L2891 859L2997 809" stroke="#E5AEED" stroke-width="3" stroke-linecap="round"/>
</g>
</g>
<defs>
<linearGradient id="paint0_linear" x1="1632" y1="408" x2="1685.15" y2="1415.88" gradientUnits="userSpaceOnUse">
<stop stop-color="#5FC6BC"/>
<stop offset="1" stop-color="#6558F5"/>
</linearGradient>
<linearGradient id="paint1_linear" x1="491.613" y1="134.575" x2="783.722" y2="1119.33" gradientUnits="userSpaceOnUse">
<stop stop-color="#B92BF0"/>
<stop offset="1" stop-color="#8313DD"/>
</linearGradient>
<linearGradient id="paint2_linear" x1="3145.1" y1="41.7255" x2="2957.24" y2="-102.719" gradientUnits="userSpaceOnUse">
<stop stop-color="#F2B4C0"/>
<stop offset="1" stop-color="#E07D8C"/>
</linearGradient>
<linearGradient id="paint3_linear" x1="2586" y1="989" x2="832.5" y2="1628" gradientUnits="userSpaceOnUse">
<stop stop-color="#8313DD"/>
<stop offset="1" stop-color="#303395"/>
</linearGradient>
<linearGradient id="paint4_linear" x1="1415" y1="1188.16" x2="1303" y2="1394.16" gradientUnits="userSpaceOnUse">
<stop stop-color="#EDB5BD"/>
<stop offset="1" stop-color="#F5C98F"/>
</linearGradient>
<clipPath id="clip0">
<rect width="4200" height="2202" fill="white"/>
</clipPath>
</defs>
</svg>
