<svg width="210" height="210" viewBox="0 0 210 210" fill="none" xmlns="http://www.w3.org/2000/svg">
<path fill-rule="evenodd" clip-rule="evenodd" d="M43 58C43 56.8954 43.8954 56 45 56H63C64.1046 56 65 56.8954 65 58V76C65 77.1046 64.1046 78 63 78H45C43.8954 78 43 77.1046 43 76V58Z" fill="#1AAE9F"/>
<path fill-rule="evenodd" clip-rule="evenodd" d="M73 58C73 56.8954 73.8954 56 75 56H93C94.1046 56 95 56.8954 95 58V76C95 77.1046 94.1046 78 93 78H75C73.8954 78 73 77.1046 73 76V58Z" fill="#1AAE9F"/>
<path fill-rule="evenodd" clip-rule="evenodd" d="M43 88C43 86.8954 43.8954 86 45 86H63C64.1046 86 65 86.8954 65 88V106C65 107.105 64.1046 108 63 108H45C43.8954 108 43 107.105 43 106V88Z" fill="#1AAE9F"/>
<path fill-rule="evenodd" clip-rule="evenodd" d="M114 58C114 56.8954 114.895 56 116 56H134C135.105 56 136 56.8954 136 58V76C136 77.1046 135.105 78 134 78H116C114.895 78 114 77.1046 114 76V58Z" fill="#5FC6BC"/>
<path fill-rule="evenodd" clip-rule="evenodd" d="M144 58C144 56.8954 144.895 56 146 56H164C165.105 56 166 56.8954 166 58V76C166 77.1046 165.105 78 164 78H146C144.895 78 144 77.1046 144 76V58Z" fill="#5FC6BC"/>
<path fill-rule="evenodd" clip-rule="evenodd" d="M114 88C114 86.8954 114.895 86 116 86H134C135.105 86 136 86.8954 136 88V106C136 107.105 135.105 108 134 108H116C114.895 108 114 107.105 114 106V88Z" fill="#5FC6BC"/>
<path fill-rule="evenodd" clip-rule="evenodd" d="M73 88C73 86.8954 73.8954 86 75 86H93C94.1046 86 95 86.8954 95 88V106C95 107.105 94.1046 108 93 108H75C73.8954 108 73 107.105 73 106V88Z" fill="#1AAE9F"/>
<path fill-rule="evenodd" clip-rule="evenodd" d="M103 53H106V111H103V53Z" fill="#A3DFD9"/>
</svg>
