<svg width="210" height="210" viewBox="0 0 210 210" fill="none" xmlns="http://www.w3.org/2000/svg">
<path fill-rule="evenodd" clip-rule="evenodd" d="M72 64C72 62.8954 72.8954 62 74 62H136C137.105 62 138 62.8954 138 64V88C138 89.1046 137.105 90 136 90H74C72.8954 90 72 89.1046 72 88V64Z" fill="#6558F5"/>
<path fill-rule="evenodd" clip-rule="evenodd" d="M72 51C72 49.8954 72.8954 49 74 49H90C91.1046 49 92 49.8954 92 51V54C92 55.1046 91.1046 56 90 56H74C72.8954 56 72 55.1046 72 54V51Z" fill="#6558F5"/>
<path fill-rule="evenodd" clip-rule="evenodd" d="M129 52.5C129 51.6716 129.672 51 130.5 51H137.5C138.328 51 139 51.6716 139 52.5V52.5C139 53.3284 138.328 54 137.5 54H130.5C129.672 54 129 53.3284 129 52.5V52.5Z" fill="#6558F5"/>
<path fill-rule="evenodd" clip-rule="evenodd" d="M113 52.5C113 51.6716 113.672 51 114.5 51H121.5C122.328 51 123 51.6716 123 52.5V52.5C123 53.3284 122.328 54 121.5 54H114.5C113.672 54 113 53.3284 113 52.5V52.5Z" fill="#6558F5"/>
<path fill-rule="evenodd" clip-rule="evenodd" d="M72 98C72 96.8954 72.8954 96 74 96H88C89.1046 96 90 96.8954 90 98V112C90 113.105 89.1046 114 88 114H74C72.8954 114 72 113.105 72 112V98Z" fill="#6558F5"/>
<path fill-rule="evenodd" clip-rule="evenodd" d="M96 98C96 96.8954 96.8954 96 98 96H112C113.105 96 114 96.8954 114 98V112C114 113.105 113.105 114 112 114H98C96.8954 114 96 113.105 96 112V98Z" fill="#6558F5"/>
<path fill-rule="evenodd" clip-rule="evenodd" d="M120 98C120 96.8954 120.895 96 122 96H136C137.105 96 138 96.8954 138 98V112C138 113.105 137.105 114 136 114H122C120.895 114 120 113.105 120 112V98Z" fill="#6558F5"/>
<path d="M64 41.5H146C146.276 41.5 146.5 41.7239 146.5 42V122C146.5 122.276 146.276 122.5 146 122.5H64C63.7239 122.5 63.5 122.276 63.5 122V42C63.5 41.7239 63.7239 41.5 64 41.5Z" stroke="#BAB4F9" stroke-width="3"/>
</svg>
